{
  "accessors": [
    {
      "bufferView": 1,
      "componentType": 5126,
      "count": 4485,
      "max": [
        3.0483860969543457,
        2.6877288818359375,
        7.337407112121582
      ],
      "min": [
        -3.0483860969543457,
        -1.771028995513916,
        -5.6894397735595703
      ],
      "type": "VEC3"
    },
    {
      "bufferView": 1,
      "byteOffset": 53820,
      "componentType": 5126,
      "count": 4485,
      "max": [
        1,
        0.99592912197113037,
        0.99977380037307739
      ],
      "min": [
        -1,
        -0.98960894346237183,
        -0.95727032423019409
      ],
      "type": "VEC3"
    },
    {
      "bufferView": 2,
      "componentType": 5126,
      "count": 4485,
      "max": [
        1,
        1,
        1,
        1
      ],
      "min": [
        1,
        1,
        1,
        1
      ],
      "type": "VEC4"
    },
    {
      "bufferView": 0,
      "componentType": 5125,
      "count": 4737,
      "max": [
        4484
      ],
      "min": [
        0
      ],
      "type": "SCALAR"
    },
    {
      "bufferView": 1,
      "byteOffset": 107640,
      "componentType": 5126,
      "count": 3772,
      "max": [
        1.42432701587677,
        0.0036515588872134686,
        6.1189231872558594
      ],
      "min": [
        -1.42432701587677,
        -1.5739510059356689,
        -5.6541600227355957
      ],
      "type": "VEC3"
    },
    {
      "bufferView": 1,
      "byteOffset": 152904,
      "componentType": 5126,
      "count": 3772,
      "max": [
        1,
        0.98875981569290161,
        0.99965023994445801
      ],
      "min": [
        -0.998177170753479,
        -0.99539077281951904,
        -0.97203934192657471
      ],
      "type": "VEC3"
    },
    {
      "bufferView": 2,
      "byteOffset": 71760,
      "componentType": 5126,
      "count": 3772,
      "max": [
        1,
        1,
        1,
        1
      ],
      "min": [
        1,
        1,
        1,
        1
      ],
      "type": "VEC4"
    },
    {
      "bufferView": 0,
      "byteOffset": 18948,
      "componentType": 5125,
      "count": 3792,
      "max": [
        3771
      ],
      "min": [
        0
      ],
      "type": "SCALAR"
    },
    {
      "bufferView": 1,
      "byteOffset": 198168,
      "componentType": 5126,
      "count": 564,
      "max": [
        1.2147829532623291,
        0.33336570858955383,
        -2.4753799438476562
      ],
      "min": [
        -1.2147829532623291,
        -0.85462182760238647,
        -5.6022729873657227
      ],
      "type": "VEC3"
    },
    {
      "bufferView": 1,
      "byteOffset": 204936,
      "componentType": 5126,
      "count": 564,
      "max": [
        0.96866685152053833,
        0.99051618576049805,
        -0.076900430023670197
      ],
      "min": [
        -0.96866685152053833,
        -0.996909499168396,
        -0.98448032140731812
      ],
      "type": "VEC3"
    },
    {
      "bufferView": 2,
      "byteOffset": 132112,
      "componentType": 5126,
      "count": 564,
      "max": [
        1,
        1,
        1,
        1
      ],
      "min": [
        1,
        1,
        1,
        1
      ],
      "type": "VEC4"
    },
    {
      "bufferView": 0,
      "byteOffset": 34116,
      "componentType": 5125,
      "count": 576,
      "max": [
        563
      ],
      "min": [
        0
      ],
      "type": "SCALAR"
    }
  ],
  "asset": {
    "extras": {
      "author": "PhilippinesTourism (https://sketchfab.com/PhilippinesTourism)",
      "license": "CC-BY-4.0 (http://creativecommons.org/licenses/by/4.0/)",
      "source": "https://sketchfab.com/3d-models/low-poly-shark-ecefe6c7fce341efafb7cfa75c45c773",
      "title": "Low Poly Shark"
    },
    "generator": "Sketchfab-6.44.0",
    "version": "2.0"
  },
  "bufferViews": [
    {
      "buffer": 0,
      "byteLength": 36420,
      "byteOffset": 0,
      "name": "floatBufferViews",
      "target": 34963
    },
    {
      "buffer": 0,
      "byteLength": 211704,
      "byteOffset": 36420,
      "byteStride": 12,
      "name": "floatBufferViews",
      "target": 34962
    },
    {
      "buffer": 0,
      "byteLength": 141136,
      "byteOffset": 248124,
      "byteStride": 16,
      "name": "floatBufferViews",
      "target": 34962
    }
  ],
  "buffers": [
    {
      "byteLength": 389260,
      "uri": "scene.bin"
    }
  ],
  "materials": [
    {
      "doubleSided": true,
      "emissiveFactor": [
        0,
        0,
        0
      ],
      "name": "material",
      "pbrMetallicRoughness": {
        "baseColorFactor": [
          0.10259,
          0.10259,
          0.10259,
          1
        ],
        "metallicFactor": 0,
        "roughnessFactor": 0.5
      }
    },
    {
      "doubleSided": true,
      "emissiveFactor": [
        0,
        0,
        0
      ],
      "name": "material_1",
      "pbrMetallicRoughness": {
        "baseColorFactor": [
          0.58146100000000001,
          0.58146100000000001,
          0.58146100000000001,
          1
        ],
        "metallicFactor": 0,
        "roughnessFactor": 0.5
      }
    },
    {
      "doubleSided": true,
      "emissiveFactor": [
        0,
        0,
        0
      ],
      "name": "material_2",
      "pbrMetallicRoughness": {
        "baseColorFactor": [
          0,
          0,
          0,
          1
        ],
        "metallicFactor": 0,
        "roughnessFactor": 0.5
      }
    }
  ],
  "meshes": [
    {
      "primitives": [
        {
          "attributes": {
            "COLOR_0": 2,
            "NORMAL": 1,
            "POSITION": 0
          },
          "indices": 3,
          "material": 0,
          "mode": 4
        }
      ]
    },
    {
      "primitives": [
        {
          "attributes": {
            "COLOR_0": 6,
            "NORMAL": 5,
            "POSITION": 4
          },
          "indices": 7,
          "material": 1,
          "mode": 4
        }
      ]
    },
    {
      "primitives": [
        {
          "attributes": {
            "COLOR_0": 10,
            "NORMAL": 9,
            "POSITION": 8
          },
          "indices": 11,
          "material": 2,
          "mode": 4
        }
      ]
    }
  ],
  "nodes": [
    {
      "children": [
        1
      ],
      "name": "RootNode (gltf orientation matrix)",
      "rotation": [
        -0.70710678118654746,
        -0,
        -0,
        0.70710678118654757
      ]
    },
    {
      "children": [
        2
      ],
      "name": "RootNode (model correction matrix)"
    },
    {
      "children": [
        3
      ],
      "name": "root"
    },
    {
      "children": [
        4
      ],
      "matrix": [
        1,
        0,
        0,
        0,
        0,
        2.2204460492503131e-16,
        1,
        0,
        0,
        -1,
        2.2204460492503131e-16,
        0,
        0,
        0,
        0,
        1
      ],
      "name": "GLTF_SceneRootNode"
    },
    {
      "children": [
        5,
        6,
        7
      ],
      "matrix": [
        -1.0675236824898542,
        0,
        1.1199088506156181,
        0,
        -0,
        1.8539170026779175,
        0,
        0,
        -1.1419864069077483,
        -0,
        -1.088568532863522,
        0,
        -7.6643819808959961,
        0,
        -8.2300434112548828,
        1
      ],
      "name": "Cube_014_002_2"
    },
    {
      "mesh": 0,
      "name": ""
    },
    {
      "mesh": 1,
      "name": ""
    },
    {
      "mesh": 2,
      "name": ""
    }
  ],
  "scene": 0,
  "scenes": [
    {
      "name": "OSG_Scene",
      "nodes": [
        0
      ]
    }
  ]
}

